<svg xmlns="http://www.w3.org/2000/svg" width="40" height="40" viewBox="0 0 40 40" fill="none">
    <script xmlns="" />
    <path
        d="M3.75 5H6.06C6.91 5 7.65167 5.57167 7.87167 6.39167L8.51 8.78667M12.5 23.75C11.1739 23.75 9.90215 24.2768 8.96447 25.2145C8.02678 26.1521 7.5 27.4239 7.5 28.75H33.75M12.5 23.75H31.1967C33.065 19.9167 34.6967 15.9433 36.07 11.8533C27.0699 9.55859 17.7944 8.52648 8.51 8.78667M12.5 23.75L8.51 8.78667M10 33.75C10 34.0815 9.8683 34.3995 9.63388 34.6339C9.39946 34.8683 9.08152 35 8.75 35C8.41848 35 8.10054 34.8683 7.86612 34.6339C7.6317 34.3995 7.5 34.0815 7.5 33.75C7.5 33.4185 7.6317 33.1005 7.86612 32.8661C8.10054 32.6317 8.41848 32.5 8.75 32.5C9.08152 32.5 9.39946 32.6317 9.63388 32.8661C9.8683 33.1005 10 33.4185 10 33.75V33.75ZM31.25 33.75C31.25 34.0815 31.1183 34.3995 30.8839 34.6339C30.6495 34.8683 30.3315 35 30 35C29.6685 35 29.3505 34.8683 29.1161 34.6339C28.8817 34.3995 28.75 34.0815 28.75 33.75C28.75 33.4185 28.8817 33.1005 29.1161 32.8661C29.3505 32.6317 29.6685 32.5 30 32.5C30.3315 32.5 30.6495 32.6317 30.8839 32.8661C31.1183 33.1005 31.25 33.4185 31.25 33.75V33.75Z"
        stroke="currentColor" stroke-width="2" stroke-linecap="round" stroke-linejoin="round" />
    <script xmlns="" />
</svg>
